<?xml version="1.0" encoding="UTF-8"?>
<!--Generator: Apple Native CoreSVG 232.5-->
<!DOCTYPE svg
PUBLIC "-//W3C//DTD SVG 1.1//EN"
       "http://www.w3.org/Graphics/SVG/1.1/DTD/svg11.dtd">
<svg version="1.1" xmlns="http://www.w3.org/2000/svg" xmlns:xlink="http://www.w3.org/1999/xlink" width="27.6339" height="27.2691">
 <g>
  <rect height="27.2691" opacity="0" width="27.6339" x="0" y="0"/>
  <path d="M0 13.6316C0 14.7747 0.937336 15.7062 2.07457 15.7062L11.5622 15.7062L11.5622 25.1938C11.5622 26.3259 12.4885 27.2633 13.6316 27.2633C14.7747 27.2633 15.7172 26.3259 15.7172 25.1938L15.7172 15.7062L25.1938 15.7062C26.3259 15.7062 27.2633 14.7747 27.2633 13.6316C27.2633 12.4885 26.3259 11.5461 25.1938 11.5461L15.7172 11.5461L15.7172 2.07457C15.7172 0.937336 14.7747 0 13.6316 0C12.4885 0 11.5622 0.937336 11.5622 2.07457L11.5622 11.5461L2.07457 11.5461C0.937336 11.5461 0 12.4885 0 13.6316Z" fill="#ffffff" fill-opacity="0.85"/>
 </g>
</svg>