<?xml version="1.0" encoding="UTF-8"?>
<!--Generator: Apple Native CoreSVG 232.5-->
<!DOCTYPE svg
PUBLIC "-//W3C//DTD SVG 1.1//EN"
       "http://www.w3.org/Graphics/SVG/1.1/DTD/svg11.dtd">
<svg version="1.1" xmlns="http://www.w3.org/2000/svg" xmlns:xlink="http://www.w3.org/1999/xlink" width="51.5137" height="46.6553">
 <g>
  <rect height="46.6553" opacity="0" width="51.5137" x="0" y="0"/>
  <path d="M6.66504 46.3867L44.5068 46.3867C48.6572 46.3867 51.1719 43.5059 51.1719 39.7705C51.1719 38.623 50.8301 37.4268 50.2197 36.3525L31.2744 3.34473C30.0049 1.12305 27.832 0 25.5859 0C23.3398 0 21.1426 1.12305 19.8975 3.34473L0.952148 36.3525C0.292969 37.4512 0 38.623 0 39.7705C0 43.5059 2.51465 46.3867 6.66504 46.3867ZM6.68945 42.5537C4.98047 42.5537 3.95508 41.2354 3.95508 39.7461C3.95508 39.2822 4.05273 38.6963 4.32129 38.1836L23.2422 5.2002C23.7549 4.29688 24.6826 3.90625 25.5859 3.90625C26.4893 3.90625 27.3926 4.29688 27.9053 5.2002L46.8262 38.208C47.0947 38.7207 47.2168 39.2822 47.2168 39.7461C47.2168 41.2354 46.1426 42.5537 44.458 42.5537Z" fill="#24292e" fill-opacity="0.85"/>
  <path d="M25.5859 29.9316C26.7578 29.9316 27.4414 29.248 27.4658 27.9785L27.8076 15.1123C27.832 13.8672 26.8555 12.9395 25.5615 12.9395C24.2432 12.9395 23.3154 13.8428 23.3398 15.0879L23.6572 27.9785C23.6816 29.2236 24.3652 29.9316 25.5859 29.9316ZM25.5859 37.8662C27.002 37.8662 28.2227 36.7432 28.2227 35.3271C28.2227 33.8867 27.0264 32.7881 25.5859 32.7881C24.1455 32.7881 22.9492 33.9111 22.9492 35.3271C22.9492 36.7188 24.1699 37.8662 25.5859 37.8662Z" fill="#24292e" fill-opacity="0.85"/>
 </g>
</svg>