<?xml version="1.0" encoding="UTF-8"?>
<!--Generator: Apple Native CoreSVG 232.5-->
<!DOCTYPE svg
PUBLIC "-//W3C//DTD SVG 1.1//EN"
       "http://www.w3.org/Graphics/SVG/1.1/DTD/svg11.dtd">
<svg version="1.1" xmlns="http://www.w3.org/2000/svg" xmlns:xlink="http://www.w3.org/1999/xlink" width="50.1465" height="49.8291">
 <g>
  <rect height="49.8291" opacity="0" width="50.1465" x="0" y="0"/>
  <path d="M49.8047 24.9268C49.8047 38.5498 38.5254 49.8291 24.9023 49.8291C11.3037 49.8291 0 38.5498 0 24.9268C0 11.3281 11.2793 0.0244141 24.8779 0.0244141C38.501 0.0244141 49.8047 11.3281 49.8047 24.9268ZM11.9141 36.1328C11.9141 37.0605 12.3779 37.7197 13.4033 37.7197L36.4014 37.7197C37.4268 37.7197 37.8906 37.0605 37.8906 36.1328C37.8906 33.3984 33.7402 26.2451 24.9023 26.2451C16.0645 26.2451 11.9141 33.3984 11.9141 36.1328ZM18.4326 17.0898C18.4326 21.1426 21.3379 24.1455 24.9023 24.1699C28.4668 24.1943 31.3721 21.1426 31.3721 17.0898C31.3721 13.3301 28.4668 10.2051 24.9023 10.2051C21.3379 10.2051 18.4326 13.3301 18.4326 17.0898Z" fill="#c080f0" fill-opacity="1"/>
 </g>
</svg>
